<svg xmlns="http://www.w3.org/2000/svg" version="1.1" xmlns:xlink="http://www.w3.org/1999/xlink" xmlns:svgjs="http://svgjs.dev/svgjs" width="1000" height="1000" viewBox="0 0 1000 1000"><rect width="1000" height="1000" fill="#ffffff"></rect><g transform="matrix(0.7,0,0,0.7,149.57605563665675,419.06459485100714)"><svg viewBox="0 0 396 92" data-background-color="#f9f9f9" preserveAspectRatio="xMidYMid meet" height="232" width="1000" xmlns="http://www.w3.org/2000/svg" xmlns:xlink="http://www.w3.org/1999/xlink"><g id="tight-bounds" transform="matrix(1,0,0,1,0.24008861730862918,-0.14989363480700035)"><svg viewBox="0 0 395.52 92.29978709186008" height="92.29978709186008" width="395.52"><g><svg viewBox="0 0 395.52 92.29978709186008" height="92.29978709186008" width="395.52"><g><svg viewBox="0 0 395.52 92.29978709186008" height="92.29978709186008" width="395.52"><g><svg viewBox="0 0 395.52 92.29978709186008" height="92.29978709186008" width="395.52"><g><svg viewBox="0 0 395.52 75.34614963524778" height="75.34614963524778" width="395.52"><path d="M394.594 16.16C392.735 8.339 387.435 6.165 387.435 6.165 371.165-1.89 350.86-0.154 332.619 1.003 300.414 1.05 268.339 2.771 236.208 3.694 168.767 3.835 100.749 1.52 33.643 7.229 27.339 8.981-6.54 7.573 1.121 17.161 3.129 21.15 10.456 25.577 10.232 29.237 11.236 29.878 12.631 28.408 13.226 29.331 15.309 31.818 18.711 30.645 21.501 32.115 17.614 36.041 20.403 39.31 23.062 42.736 18.377 43.627 12.371 43.205 9.675 46.161 9.396 48.304 7.89 47.898 6.235 47.804 5.026 47.741 2.59 47.976 2.999 48.648 4.394 50.948-1.594 52.277 2.162 54.53-0.422 56.97 3.948 59.081 3.353 61.725 3.278 62.257 3.687 62.71 4.338 62.835 7.22 63.508 3.018 64.822 3.464 66.245 33.029 75.975 65.104 69.249 95.394 73.722 103.259 70.594 97.346 74.833 100.489 74.176 102.943 73.409 104.728 76.585 107.499 74.786 107.927 74.27 107.276 73.05 108.8 73.284 109.6 73.409 110.307 73.378 110.418 72.659 110.586 71.579 109.117 72.252 108.726 71.689 112.947 68.842 111.906 75.615 115.866 75.333 115.68 74.504 114.528 73.315 116.889 73.472 119.232 72.283 119.306 71.298 121.389 73.972 121.463 74.551 121.835 74.958 122.43 75.239 128.938 72.33 135.409 76.272 142.233 74.958 146.417 73.519 150.433 75.74 154.672 75.192 156.16 74.755 157.666 73.972 159.098 75.286 176.632 75.568 195.319 74.395 211.943 75.333 256.364 73.581 303.835 76.053 350.674 73.738 361.719 72.846 373.192 71.579 383.958 70.563 383.958 70.563 392.679 67.778 392.679 55.265S394.538 44.316 394.817 34.352C395.096 24.388 396.398 23.981 394.538 16.16Z" opacity="1" fill="#030303" data-fill-palette-color="tertiary"></path><g transform="matrix(1,0,0,1,55.76832,26.068561146666667)"><svg width="283.98335999999995" viewBox="6.710000038146973 -35.0099983215332 434.32000732421875 35.5" height="23.209027341914446" data-palette-color="#f9f9f9"><path d="M24.07-34.94L24.07-34.94Q28.81-34.94 33.5-33.08L33.5-33.08 32.23-29.64Q27.49-31.27 23.95-31.27L23.95-31.27Q21.02-31.27 18.52-30.11 16.02-28.96 14.37-27.01 12.72-25.07 11.79-22.57 10.86-20.07 10.86-17.33L10.86-17.33Q10.86-14.5 11.85-11.95 12.84-9.4 14.62-7.48 16.41-5.57 19.06-4.44 21.7-3.32 24.85-3.32L24.85-3.32Q28.61-3.32 32.69-4.79L32.69-4.79 33.96-1.71Q28.86 0.49 23.8 0.49L23.8 0.49Q20.68 0.49 17.94-0.42 15.21-1.32 13.17-2.94 11.13-4.57 9.67-6.79 8.2-9.01 7.46-11.68 6.71-14.36 6.71-17.31L6.71-17.31Q6.71-22.31 8.8-26.29 10.89-30.27 14.87-32.6 18.85-34.94 24.07-34.94ZM42.5 0L42.5-34.69 46.65-34.69 46.65-3.64 62.23-3.64 62.23 0 42.5 0ZM70.89 0L70.89-34.69 75.04-34.69 75.04 0 70.89 0ZM87.98 0L87.98-34.69 93.84-34.69 104.97-13.65 116.28-34.69 121.77-34.69 121.77 0 117.62 0 117.62-28.74 106.95-9.94 102.8-9.94 92.13-28.74 92.13 0 87.98 0ZM130.07 0L142.4-34.69 147.11-34.69 159.44 0 155.24 0 151.72-10.08 137.42-10.08 133.9 0 130.07 0ZM150.45-13.72L144.57-30.64 138.66-13.72 150.45-13.72ZM162.73-31.03L162.73-34.69 190.08-34.69 190.08-31.03 178.48-31.03 178.48 0 174.33 0 174.33-31.03 162.73-31.03ZM217.61 0L197.28 0 197.28-34.69 217.61-34.69 217.61-31.03 201.43-31.03 201.43-19.7 216.27-19.7 216.27-16.04 201.43-16.04 201.43-3.66 217.61-3.66 217.61 0ZM242.27 0L242.27-34.69 248.12-34.69 259.26-13.65 270.56-34.69 276.05-34.69 276.05 0 271.9 0 271.9-28.74 261.23-9.94 257.08-9.94 246.42-28.74 246.42 0 242.27 0ZM284.35 0L296.68-34.69 301.39-34.69 313.72 0 309.52 0 306.01-10.08 291.7-10.08 288.19 0 284.35 0ZM304.74-13.72L298.85-30.64 292.95-13.72 304.74-13.72ZM334.98-35.01L334.98-35.01Q338.99-35.01 343.6-33.62L343.6-33.62 342.26-29.83Q337.87-31.1 334.64-31.1L334.64-31.1Q331.03-31.1 328.53-29.58 326.02-28.05 326.02-25.63L326.02-25.63Q326.02-24.29 326.83-23.24 327.64-22.19 328.95-21.53 330.27-20.87 331.96-20.23 333.64-19.58 335.39-19.04 337.13-18.51 338.82-17.68 340.5-16.85 341.82-15.86 343.14-14.87 343.94-13.28 344.75-11.69 344.75-9.69L344.75-9.69Q344.75-8.3 344.31-6.92 343.87-5.54 342.85-4.19 341.82-2.83 340.31-1.81 338.79-0.78 336.49-0.15 334.18 0.49 331.35 0.49 328.52 0.49 326.13-0.1 323.75-0.68 320.8-1.86L320.8-1.86 322.22-5.88Q328.32-3.61 331.86-3.61L331.86-3.61Q335.57-3.61 337.9-5.1 340.23-6.59 340.23-9.08L340.23-9.08Q340.23-10.74 339.2-11.95 338.16-13.16 336.51-13.9 334.86-14.65 332.86-15.3 330.86-15.94 328.87-16.69 326.88-17.43 325.23-18.41 323.58-19.38 322.55-21.04 321.51-22.71 321.51-24.95L321.51-24.95Q321.51-26.95 322.47-28.78 323.44-30.62 325.15-31.99 326.85-33.37 329.42-34.19 331.98-35.01 334.98-35.01ZM350.24-31.03L350.24-34.69 377.58-34.69 377.58-31.03 365.99-31.03 365.99 0 361.84 0 361.84-31.03 350.24-31.03ZM405.12 0L384.78 0 384.78-34.69 405.12-34.69 405.12-31.03 388.93-31.03 388.93-19.7 403.78-19.7 403.78-16.04 388.93-16.04 388.93-3.66 405.12-3.66 405.12 0ZM439.01-25.17L439.01-25.17Q439.01-23.44 438.59-21.88 438.18-20.31 437.3-18.9 436.42-17.48 434.87-16.44 433.32-15.41 431.24-14.92L431.24-14.92 441.03 0 436.39 0 426.99-14.45 420.28-14.45 420.28 0 416.11 0 416.11-34.69 428.85-34.69Q429.73-34.69 430.44-34.64 431.14-34.59 432.26-34.39 433.37-34.18 434.22-33.83 435.07-33.47 436.01-32.75 436.95-32.03 437.58-31.05 438.2-30.08 438.6-28.56 439.01-27.05 439.01-25.17ZM420.28-31.05L420.28-18.12 426.26-18.12Q427.51-18.12 428.46-18.2 429.41-18.29 430.69-18.66 431.97-19.04 432.82-19.71 433.66-20.39 434.26-21.67 434.86-22.95 434.86-24.71L434.86-24.71Q434.86-25.95 434.54-26.95 434.22-27.95 433.73-28.6 433.24-29.25 432.54-29.72 431.83-30.2 431.17-30.44 430.51-30.69 429.7-30.83 428.9-30.98 428.37-31.02 427.85-31.05 427.26-31.05L427.26-31.05 420.28-31.05Z" opacity="1" transform="matrix(1,0,0,1,0,0)" fill="#f9f9f9" class="undefined-text-0" data-fill-palette-color="quaternary" id="text-0"></path></svg></g></svg></g><g transform="matrix(1,0,0,1,107.78094310434973,80.82524397401758)"><svg viewBox="0 0 179.95811379130052 11.474543117842503" height="11.474543117842503" width="179.95811379130052"><g transform="matrix(1,0,0,1,0,0)"><svg width="179.95811379130052" viewBox="4.25 -38.70000076293945 772.3099975585938 49.25" height="11.474543117842503" data-palette-color="#030303"><path d="M26.05 0L21.4 0 21.4-16.15 8.9-16.15 8.9 0 4.25 0 4.25-34.4 8.9-34.4 8.9-19.95 21.4-19.95 21.4-34.4 26.05-34.4 26.05 0ZM50.75-34.4L55.35-34.4 45.85 0 40.3 0 30.65-34.4 35.45-34.4 43.15-4.5 50.75-34.4ZM81.7 0L76.9 0 74.59-8.75 63.05-8.75 60.75 0 56.1 0 66.05-34.4 71.75-34.4 81.7 0ZM68.84-30.7L64-12.4 73.65-12.4 68.84-30.7ZM97.69-35.05Q100.39-35.05 102.39-34.23 104.39-33.4 106.34-31.65L106.34-31.65 103.94-28.85Q102.49-30.1 101.07-30.7 99.64-31.3 97.94-31.3L97.94-31.3Q94.04-31.3 91.74-27.98 89.44-24.65 89.44-17.25L89.44-17.25Q89.44-10.05 91.74-6.63 94.04-3.2 97.94-3.2L97.94-3.2Q99.89-3.2 101.29-3.9 102.69-4.6 104.34-5.95L104.34-5.95 106.69-3.2Q102.94 0.65 97.69 0.65L97.69 0.65Q93.84 0.65 90.87-1.35 87.89-3.35 86.22-7.38 84.54-11.4 84.54-17.25L84.54-17.25Q84.54-23.05 86.27-27.05 87.99-31.05 90.97-33.05 93.94-35.05 97.69-35.05L97.69-35.05ZM145.24 0L140.59 0 140.59-16.15 128.09-16.15 128.09 0 123.44 0 123.44-34.4 128.09-34.4 128.09-19.95 140.59-19.95 140.59-34.4 145.24-34.4 145.24 0ZM171.99-13.95Q171.99-12.9 171.89-11.6L171.89-11.6 156.59-11.6Q156.79-7 158.44-4.98 160.09-2.95 162.94-2.95L162.94-2.95Q164.74-2.95 166.16-3.5 167.59-4.05 169.14-5.3L169.14-5.3 171.14-2.65Q167.44 0.65 162.74 0.65L162.74 0.65Q157.59 0.65 154.76-2.93 151.94-6.5 151.94-12.95L151.94-12.95Q151.94-19.4 154.64-23.18 157.34-26.95 162.14-26.95L162.14-26.95Q166.89-26.95 169.44-23.58 171.99-20.2 171.99-13.95L171.99-13.95ZM167.64-14.75L167.64-15.3Q167.64-23.55 162.19-23.55L162.19-23.55Q159.69-23.55 158.24-21.48 156.79-19.4 156.59-14.75L156.59-14.75 167.64-14.75ZM194.63-6Q194.63-4.4 195.08-3.63 195.53-2.85 196.48-2.45L196.48-2.45 195.53 0.6Q193.58 0.3 192.48-0.6 191.38-1.5 190.93-3.35L190.93-3.35Q188.38 0.65 183.78 0.65L183.78 0.65Q180.28 0.65 178.23-1.53 176.18-3.7 176.18-7.35L176.18-7.35Q176.18-11.55 178.93-13.75 181.68-15.95 186.78-15.95L186.78-15.95 190.18-15.95 190.18-18.2Q190.18-20.95 189.06-22.18 187.93-23.4 185.38-23.4L185.38-23.4Q182.63-23.4 178.98-22L178.98-22 177.88-25.15Q182.28-26.95 186.08-26.95L186.08-26.95Q194.63-26.95 194.63-18.4L194.63-18.4 194.63-6ZM184.83-2.75Q188.33-2.75 190.18-6.85L190.18-6.85 190.18-13.05 187.28-13.05Q180.78-13.05 180.78-7.6L180.78-7.6Q180.78-5.25 181.83-4 182.88-2.75 184.83-2.75L184.83-2.75ZM213.53-4.05L215.18-1.15Q212.68 0.65 209.63 0.65L209.63 0.65Q206.43 0.65 204.71-1.2 202.98-3.05 202.98-6.4L202.98-6.4 202.98-22.9 199.23-22.9 199.23-26.3 202.98-26.3 202.98-32.35 207.48-32.9 207.48-26.3 213.28-26.3 212.78-22.9 207.48-22.9 207.48-6.45Q207.48-3.05 210.33-3.05L210.33-3.05Q211.18-3.05 211.91-3.3 212.63-3.55 213.53-4.05L213.53-4.05ZM219.08-26.3L223.58-26.3 223.58 0 219.08 0 219.08-26.3ZM221.33-38.7Q222.63-38.7 223.45-37.85 224.28-37 224.28-35.75L224.28-35.75Q224.28-34.5 223.48-33.68 222.68-32.85 221.33-32.85L221.33-32.85Q220.03-32.85 219.2-33.68 218.38-34.5 218.38-35.75L218.38-35.75Q218.38-37 219.2-37.85 220.03-38.7 221.33-38.7L221.33-38.7ZM243.43-26.95Q246.57-26.95 248.35-24.88 250.13-22.8 250.13-19.15L250.13-19.15 250.13 0 245.63 0 245.63-18.6Q245.63-21.15 244.78-22.28 243.93-23.4 242.18-23.4L242.18-23.4Q238.88-23.4 236.18-18.7L236.18-18.7 236.18 0 231.68 0 231.68-26.3 235.57-26.3 235.93-22.4Q238.97-26.95 243.43-26.95L243.43-26.95ZM276.07-29.15L277.32-25.35Q275.17-24.5 270.67-24.5L270.67-24.5Q274.87-22.4 274.87-17.6L274.87-17.6Q274.87-13.65 272.4-11.23 269.92-8.8 265.67-8.8L265.67-8.8Q264.07-8.8 262.77-9.3L262.77-9.3Q261.37-8.3 261.37-6.75L261.37-6.75Q261.37-4.4 264.67-4.4L264.67-4.4 268.12-4.4Q272.02-4.4 274.32-2.43 276.62-0.45 276.62 2.6L276.62 2.6Q276.62 6.3 273.77 8.43 270.92 10.55 265.42 10.55L265.42 10.55Q259.72 10.55 257.35 8.6 254.97 6.65 254.97 2.65L254.97 2.65 259.02 2.65Q259.02 4.3 259.6 5.28 260.17 6.25 261.55 6.73 262.92 7.2 265.47 7.2L265.47 7.2Q269.02 7.2 270.57 6.1 272.12 5 272.12 2.95L272.12 2.95Q272.12 1.05 270.85 0.05 269.57-0.95 267.22-0.95L267.22-0.95 264.27-0.95Q260.82-0.95 259.12-2.27 257.42-3.6 257.42-5.8L257.42-5.8Q257.42-8.35 260.17-10.35L260.17-10.35Q258.07-11.55 257.05-13.38 256.02-15.2 256.02-17.8L256.02-17.8Q256.02-21.9 258.62-24.4 261.22-26.9 265.47-26.9L265.47-26.9Q269.42-26.9 271.6-27.45 273.77-28 276.07-29.15L276.07-29.15ZM265.52-23.75Q263.07-23.75 261.8-22.23 260.52-20.7 260.52-17.8L260.52-17.8Q260.52-15 261.85-13.43 263.17-11.85 265.52-11.85L265.52-11.85Q270.47-11.85 270.47-17.85L270.47-17.85Q270.47-20.75 269.22-22.25 267.97-23.75 265.52-23.75L265.52-23.75ZM303.12-35.05Q306.92-35.05 309.22-32.9 311.52-30.75 311.52-27.4L311.52-27.4Q311.52-24.5 309.87-22.4 308.22-20.3 304.97-18.15L304.97-18.15 312.97-9.7Q314.72-13.85 315.62-18.25L315.62-18.25 319.47-17.2Q317.97-11.4 315.52-7.2L315.52-7.2 320.97-1.7 317.52 0.65 313.02-4.2Q311.02-1.8 308.57-0.58 306.12 0.65 302.97 0.65L302.97 0.65Q300.02 0.65 297.74-0.53 295.47-1.7 294.17-3.83 292.87-5.95 292.87-8.7L292.87-8.7Q292.87-11.8 294.42-14.08 295.97-16.35 299.22-18.55L299.22-18.55Q296.77-21.05 295.74-22.93 294.72-24.8 294.72-27.25L294.72-27.25Q294.72-30.65 296.94-32.85 299.17-35.05 303.12-35.05L303.12-35.05ZM303.17-31.8Q301.22-31.8 300.14-30.58 299.07-29.35 299.07-27.25L299.07-27.25Q299.07-25.45 299.79-24.03 300.52-22.6 302.52-20.5L302.52-20.5Q304.97-22.2 306.07-23.7 307.17-25.2 307.17-27.25L307.17-27.25Q307.17-29.55 306.09-30.68 305.02-31.8 303.17-31.8L303.17-31.8ZM301.77-16.1Q299.57-14.5 298.54-12.8 297.52-11.1 297.52-8.85L297.52-8.85Q297.52-6.05 299.17-4.45 300.82-2.85 303.47-2.85L303.47-2.85Q305.72-2.85 307.42-3.78 309.12-4.7 310.62-6.55L310.62-6.55 301.77-16.1ZM349.86-35.05Q352.56-35.05 354.56-34.23 356.56-33.4 358.51-31.65L358.51-31.65 356.11-28.85Q354.66-30.1 353.24-30.7 351.81-31.3 350.11-31.3L350.11-31.3Q346.21-31.3 343.91-27.98 341.61-24.65 341.61-17.25L341.61-17.25Q341.61-10.05 343.91-6.63 346.21-3.2 350.11-3.2L350.11-3.2Q352.06-3.2 353.46-3.9 354.86-4.6 356.51-5.95L356.51-5.95 358.86-3.2Q355.11 0.65 349.86 0.65L349.86 0.65Q346.01 0.65 343.04-1.35 340.06-3.35 338.39-7.38 336.71-11.4 336.71-17.25L336.71-17.25Q336.71-23.05 338.44-27.05 340.16-31.05 343.14-33.05 346.11-35.05 349.86-35.05L349.86-35.05ZM372.81-26.95Q377.86-26.95 380.66-23.4 383.46-19.85 383.46-13.2L383.46-13.2Q383.46-6.8 380.61-3.08 377.76 0.65 372.76 0.65L372.76 0.65Q367.71 0.65 364.88-3 362.06-6.65 362.06-13.15L362.06-13.15Q362.06-19.7 364.91-23.33 367.76-26.95 372.81-26.95L372.81-26.95ZM372.81-23.35Q369.86-23.35 368.31-20.88 366.76-18.4 366.76-13.15L366.76-13.15Q366.76-2.9 372.76-2.9L372.76-2.9Q378.76-2.9 378.76-13.2L378.76-13.2Q378.76-18.45 377.26-20.9 375.76-23.35 372.81-23.35L372.81-23.35ZM399.11-26.95Q404.16-26.95 406.96-23.4 409.76-19.85 409.76-13.2L409.76-13.2Q409.76-6.8 406.91-3.08 404.06 0.65 399.06 0.65L399.06 0.65Q394.01 0.65 391.18-3 388.36-6.65 388.36-13.15L388.36-13.15Q388.36-19.7 391.21-23.33 394.06-26.95 399.11-26.95L399.11-26.95ZM399.11-23.35Q396.16-23.35 394.61-20.88 393.06-18.4 393.06-13.15L393.06-13.15Q393.06-2.9 399.06-2.9L399.06-2.9Q405.06-2.9 405.06-13.2L405.06-13.2Q405.06-18.45 403.56-20.9 402.06-23.35 399.11-23.35L399.11-23.35ZM421.2 0.65Q418.81 0.65 417.4-0.8 416-2.25 416-4.85L416-4.85 416-36.95 420.5-37.45 420.5-5Q420.5-3.05 422.1-3.05L422.1-3.05Q422.75-3.05 423.56-3.35L423.56-3.35 424.56-0.2Q422.95 0.65 421.2 0.65L421.2 0.65ZM429.45-26.3L433.95-26.3 433.95 0 429.45 0 429.45-26.3ZM431.7-38.7Q433-38.7 433.83-37.85 434.65-37 434.65-35.75L434.65-35.75Q434.65-34.5 433.85-33.68 433.05-32.85 431.7-32.85L431.7-32.85Q430.4-32.85 429.58-33.68 428.75-34.5 428.75-35.75L428.75-35.75Q428.75-37 429.58-37.85 430.4-38.7 431.7-38.7L431.7-38.7ZM453.8-26.95Q456.95-26.95 458.73-24.88 460.5-22.8 460.5-19.15L460.5-19.15 460.5 0 456 0 456-18.6Q456-21.15 455.15-22.28 454.3-23.4 452.55-23.4L452.55-23.4Q449.25-23.4 446.55-18.7L446.55-18.7 446.55 0 442.05 0 442.05-26.3 445.95-26.3 446.3-22.4Q449.35-26.95 453.8-26.95L453.8-26.95ZM486.45-29.15L487.7-25.35Q485.55-24.5 481.05-24.5L481.05-24.5Q485.25-22.4 485.25-17.6L485.25-17.6Q485.25-13.65 482.77-11.23 480.3-8.8 476.05-8.8L476.05-8.8Q474.45-8.8 473.15-9.3L473.15-9.3Q471.75-8.3 471.75-6.75L471.75-6.75Q471.75-4.4 475.05-4.4L475.05-4.4 478.5-4.4Q482.4-4.4 484.7-2.43 487-0.45 487 2.6L487 2.6Q487 6.3 484.15 8.43 481.3 10.55 475.8 10.55L475.8 10.55Q470.1 10.55 467.72 8.6 465.35 6.65 465.35 2.65L465.35 2.65 469.4 2.65Q469.4 4.3 469.97 5.28 470.55 6.25 471.92 6.73 473.3 7.2 475.85 7.2L475.85 7.2Q479.4 7.2 480.95 6.1 482.5 5 482.5 2.95L482.5 2.95Q482.5 1.05 481.22 0.05 479.95-0.95 477.6-0.95L477.6-0.95 474.65-0.95Q471.2-0.95 469.5-2.27 467.8-3.6 467.8-5.8L467.8-5.8Q467.8-8.35 470.55-10.35L470.55-10.35Q468.45-11.55 467.42-13.38 466.4-15.2 466.4-17.8L466.4-17.8Q466.4-21.9 469-24.4 471.6-26.9 475.85-26.9L475.85-26.9Q479.8-26.9 481.97-27.45 484.15-28 486.45-29.15L486.45-29.15ZM475.9-23.75Q473.45-23.75 472.17-22.23 470.9-20.7 470.9-17.8L470.9-17.8Q470.9-15 472.22-13.43 473.55-11.85 475.9-11.85L475.9-11.85Q480.85-11.85 480.85-17.85L480.85-17.85Q480.85-20.75 479.6-22.25 478.35-23.75 475.9-23.75L475.9-23.75ZM511.99-35.05Q515.04-35.05 517.32-34.05 519.59-33.05 521.59-31.05L521.59-31.05 519.24-28.4Q517.54-29.9 515.87-30.63 514.19-31.35 512.24-31.35L512.24-31.35Q509.74-31.35 508.22-29.98 506.69-28.6 506.69-26.35L506.69-26.35Q506.69-24.85 507.29-23.78 507.89-22.7 509.34-21.83 510.79-20.95 513.44-20.05L513.44-20.05Q516.49-18.95 518.44-17.7 520.39-16.45 521.44-14.5 522.49-12.55 522.49-9.6L522.49-9.6Q522.49-6.65 521.14-4.33 519.79-2 517.27-0.68 514.74 0.65 511.34 0.65L511.34 0.65Q505.09 0.65 500.69-3.85L500.69-3.85 503.14-6.5Q504.99-4.85 506.92-3.98 508.84-3.1 511.19-3.1L511.19-3.1Q514.14-3.1 515.92-4.78 517.69-6.45 517.69-9.4L517.69-9.4Q517.69-11.95 516.27-13.45 514.84-14.95 511.04-16.25L511.04-16.25Q506.19-17.95 504.07-20.2 501.94-22.45 501.94-26.05L501.94-26.05Q501.94-28.6 503.22-30.68 504.49-32.75 506.79-33.9 509.09-35.05 511.99-35.05L511.99-35.05ZM537.59-26.95Q542.64-26.95 545.44-23.4 548.24-19.85 548.24-13.2L548.24-13.2Q548.24-6.8 545.39-3.08 542.54 0.65 537.54 0.65L537.54 0.65Q532.49 0.65 529.66-3 526.84-6.65 526.84-13.15L526.84-13.15Q526.84-19.7 529.69-23.33 532.54-26.95 537.59-26.95L537.59-26.95ZM537.59-23.35Q534.64-23.35 533.09-20.88 531.54-18.4 531.54-13.15L531.54-13.15Q531.54-2.9 537.54-2.9L537.54-2.9Q543.54-2.9 543.54-13.2L543.54-13.2Q543.54-18.45 542.04-20.9 540.54-23.35 537.59-23.35L537.59-23.35ZM559.69 0.65Q557.29 0.65 555.89-0.8 554.49-2.25 554.49-4.85L554.49-4.85 554.49-36.95 558.99-37.45 558.99-5Q558.99-3.05 560.59-3.05L560.59-3.05Q561.24-3.05 562.04-3.35L562.04-3.35 563.04-0.2Q561.44 0.65 559.69 0.65L559.69 0.65ZM585.98-26.3L585.98 0 582.08 0 581.83-3.95Q579.08 0.65 574.48 0.65L574.48 0.65Q571.33 0.65 569.53-1.4 567.73-3.45 567.73-6.95L567.73-6.95 567.73-26.3 572.23-26.3 572.23-7.35Q572.23-5.05 573.11-3.98 573.98-2.9 575.73-2.9L575.73-2.9Q579.08-2.9 581.48-7.3L581.48-7.3 581.48-26.3 585.98-26.3ZM604.88-4.05L606.53-1.15Q604.03 0.65 600.98 0.65L600.98 0.65Q597.78 0.65 596.06-1.2 594.33-3.05 594.33-6.4L594.33-6.4 594.33-22.9 590.58-22.9 590.58-26.3 594.33-26.3 594.33-32.35 598.83-32.9 598.83-26.3 604.63-26.3 604.13-22.9 598.83-22.9 598.83-6.45Q598.83-3.05 601.68-3.05L601.68-3.05Q602.53-3.05 603.26-3.3 603.98-3.55 604.88-4.05L604.88-4.05ZM610.43-26.3L614.93-26.3 614.93 0 610.43 0 610.43-26.3ZM612.68-38.7Q613.98-38.7 614.8-37.85 615.63-37 615.63-35.75L615.63-35.75Q615.63-34.5 614.83-33.68 614.03-32.85 612.68-32.85L612.68-32.85Q611.38-32.85 610.55-33.68 609.73-34.5 609.73-35.75L609.73-35.75Q609.73-37 610.55-37.85 611.38-38.7 612.68-38.7L612.68-38.7ZM632.18-26.95Q637.23-26.95 640.03-23.4 642.83-19.85 642.83-13.2L642.83-13.2Q642.83-6.8 639.98-3.08 637.13 0.65 632.13 0.65L632.13 0.65Q627.08 0.65 624.25-3 621.43-6.65 621.43-13.15L621.43-13.15Q621.43-19.7 624.28-23.33 627.13-26.95 632.18-26.95L632.18-26.95ZM632.18-23.35Q629.23-23.35 627.68-20.88 626.13-18.4 626.13-13.15L626.13-13.15Q626.13-2.9 632.13-2.9L632.13-2.9Q638.13-2.9 638.13-13.2L638.13-13.2Q638.13-18.45 636.63-20.9 635.13-23.35 632.18-23.35L632.18-23.35ZM661.07-26.95Q664.22-26.95 666-24.88 667.77-22.8 667.77-19.15L667.77-19.15 667.77 0 663.27 0 663.27-18.6Q663.27-21.15 662.42-22.28 661.57-23.4 659.82-23.4L659.82-23.4Q656.52-23.4 653.82-18.7L653.82-18.7 653.82 0 649.32 0 649.32-26.3 653.22-26.3 653.57-22.4Q656.62-26.95 661.07-26.95L661.07-26.95ZM682.47-26.95Q687.02-26.95 690.57-23.95L690.57-23.95 688.67-21.3Q687.07-22.4 685.67-22.95 684.27-23.5 682.72-23.5L682.72-23.5Q680.67-23.5 679.5-22.53 678.32-21.55 678.32-19.85L678.32-19.85Q678.32-18.2 679.45-17.25 680.57-16.3 683.72-15.3L683.72-15.3Q687.67-14.05 689.47-12.25 691.27-10.45 691.27-7.3L691.27-7.3Q691.27-3.6 688.57-1.48 685.87 0.65 681.82 0.65L681.82 0.65Q676.47 0.65 672.77-2.9L672.77-2.9 675.07-5.4Q678.22-2.85 681.72-2.85L681.72-2.85Q683.92-2.85 685.27-3.95 686.62-5.05 686.62-7L686.62-7Q686.62-8.4 686.15-9.25 685.67-10.1 684.45-10.78 683.22-11.45 680.87-12.2L680.87-12.2Q677.12-13.45 675.47-15.2 673.82-16.95 673.82-19.65L673.82-19.65Q673.82-21.75 674.92-23.4 676.02-25.05 677.97-26 679.92-26.95 682.47-26.95L682.47-26.95ZM708.97-34.4L713.62-34.4 713.62-3.95 726.17-3.95 725.67 0 708.97 0 708.97-34.4ZM727.41-34.4L749.76-34.4 749.21-30.6 740.76-30.6 740.76 0 736.11 0 736.11-30.6 727.41-30.6 727.41-34.4ZM761.36-34.4Q765.81-34.4 769.11-33.05 772.41-31.7 774.49-27.95 776.56-24.2 776.56-17.4L776.56-17.4Q776.56-7.7 772.44-3.85 768.31 0 762.01 0L762.01 0 754.26 0 754.26-34.4 761.36-34.4ZM762.06-30.75L758.91-30.75 758.91-3.6 762.31-3.6Q766.61-3.6 769.16-6.58 771.71-9.55 771.71-17.4L771.71-17.4Q771.71-22.9 770.39-25.85 769.06-28.8 766.99-29.78 764.91-30.75 762.06-30.75L762.06-30.75Z" opacity="1" transform="matrix(1,0,0,1,0,0)" fill="#000000" class="undefined-text-1" data-fill-palette-color="secondary" id="text-1"></path></svg></g></svg></g></svg></g></svg></g><g></g></svg></g><defs></defs></svg><rect width="395.52" height="92.29978709186008" fill="none" stroke="none" visibility="hidden"></rect></g></svg></g></svg>